<svg width="16" height="26" viewBox="0 0 16 26" fill="none" xmlns="http://www.w3.org/2000/svg">
<path d="M0.35616 0.305961C0.127829 0.505987 0 0.774506 0 1.05412C0 1.33373 0.127829 1.60225 0.35616 1.80228L13.1127 13L0.35616 24.1955C0.127829 24.3955 0 24.664 0 24.9436C0 25.2233 0.127829 25.4918 0.35616 25.6918C0.467144 25.7893 0.599839 25.8669 0.746413 25.9198C0.892987 25.9727 1.05047 26 1.20956 26C1.36866 26 1.52614 25.9727 1.67271 25.9198C1.81928 25.8669 1.95198 25.7893 2.06296 25.6918L15.6284 13.7818C15.8667 13.5726 16 13.2921 16 13C16 12.7079 15.8667 12.4274 15.6284 12.2182L2.06296 0.308201C1.95198 0.210664 1.81928 0.13314 1.67271 0.0802061C1.52614 0.0272719 1.36866 0 1.20956 0C1.05047 0 0.892987 0.0272719 0.746413 0.0802061C0.599839 0.13314 0.467144 0.210664 0.35616 0.308201V0.305961Z" fill="black"/>
</svg>
