<svg width="16" height="26" viewBox="0 0 16 26" fill="none" xmlns="http://www.w3.org/2000/svg">
<path d="M13.937 0.308201L0.371599 12.216C0.133343 12.4252 0 12.7057 0 12.9978C0 13.2898 0.133343 13.5704 0.371599 13.7795L13.937 25.6918C14.048 25.7893 14.1807 25.8669 14.3273 25.9198C14.4739 25.9727 14.6313 26 14.7904 26C14.9495 26 15.107 25.9727 15.2536 25.9198C15.4002 25.8669 15.5329 25.7893 15.6438 25.6918C15.8722 25.4918 16 25.2233 16 24.9436C16 24.664 15.8722 24.3955 15.6438 24.1955L2.8873 12.9978L15.6438 1.80228C15.8714 1.60235 15.9987 1.33431 15.9987 1.05524C15.9987 0.776168 15.8714 0.508125 15.6438 0.308201C15.5329 0.210664 15.4002 0.13314 15.2536 0.0802061C15.107 0.0272719 14.9495 0 14.7904 0C14.6313 0 14.4739 0.0272719 14.3273 0.0802061C14.1807 0.13314 14.048 0.210664 13.937 0.308201Z" fill="black"/>
</svg>
