<svg width="11" height="20" viewBox="0 0 11 20" fill="none" xmlns="http://www.w3.org/2000/svg">
<path d="M0.368883 10.7909L9.27572 19.6591C9.42433 19.8072 9.62041 19.8884 9.82327 19.886C10.0261 19.8836 10.2202 19.7977 10.3653 19.6462L10.3746 19.6359C10.4452 19.5625 10.501 19.4744 10.5388 19.377C10.5765 19.2797 10.5953 19.1751 10.594 19.0697C10.5928 18.9643 10.5715 18.8602 10.5315 18.7638C10.4914 18.6673 10.4335 18.5806 10.3612 18.5088L1.97383 10.1584L10.1604 1.61426C10.231 1.54079 10.2868 1.45271 10.3245 1.35537C10.3622 1.25802 10.3811 1.15346 10.3798 1.04802C10.3785 0.942592 10.3573 0.838501 10.3172 0.742082C10.2772 0.645662 10.2193 0.558931 10.147 0.487164L10.1374 0.477137C9.9888 0.329091 9.79273 0.247848 9.58987 0.250259C9.387 0.25267 9.19291 0.338552 9.04786 0.490088L0.354341 9.56751C0.277885 9.64734 0.217399 9.74297 0.176549 9.84862C0.1357 9.95427 0.115337 10.0677 0.116697 10.1821C0.118057 10.2965 0.14111 10.4095 0.18446 10.5141C0.227809 10.6188 0.290551 10.7129 0.368883 10.7909Z" fill="black"/>
</svg>
