<svg width="23" height="12" viewBox="0 0 23 12" fill="none" xmlns="http://www.w3.org/2000/svg">
<path d="M14.9117 0.857143V11.1429C14.9117 11.6143 14.3367 12 13.6339 12H9.37889C8.67611 12 8.10111 11.6143 8.10111 11.1429V0.857143C8.10111 0.385714 8.67611 0 9.37889 0H13.6339C14.3367 0 14.9117 0.385714 14.9117 0.857143ZM17.4672 12H21.7222C22.425 12 23 11.6143 23 11.1429V0.857143C23 0.385714 22.425 0 21.7222 0H17.4672C16.7644 0 16.1894 0.385714 16.1894 0.857143V11.1429C16.1894 11.6143 16.7517 12 17.4672 12ZM6.81056 11.1429V0.857143C6.81056 0.385714 6.23556 0 5.53278 0H1.27778C0.575 0 0 0.385714 0 0.857143V11.1429C0 11.6143 0.575 12 1.27778 12H5.53278C6.24833 12 6.81056 11.6143 6.81056 11.1429Z" fill="white"/>
</svg>
