<svg width="23" height="12" viewBox="0 0 23 12" fill="none" xmlns="http://www.w3.org/2000/svg">
<path d="M21.85 2.11765H1.15C0.845001 2.11765 0.552494 2.00609 0.336827 1.80753C0.12116 1.60896 0 1.33964 0 1.05882C0 0.778006 0.12116 0.50869 0.336827 0.310122C0.552494 0.111554 0.845001 0 1.15 0H21.85C22.155 0 22.4475 0.111554 22.6632 0.310122C22.8788 0.50869 23 0.778006 23 1.05882C23 1.33964 22.8788 1.60896 22.6632 1.80753C22.4475 2.00609 22.155 2.11765 21.85 2.11765ZM18.0167 7.05882H4.98333C4.67833 7.05882 4.38583 6.94727 4.17016 6.7487C3.95449 6.55013 3.83333 6.28082 3.83333 6C3.83333 5.71918 3.95449 5.44987 4.17016 5.2513C4.38583 5.05273 4.67833 4.94118 4.98333 4.94118H18.0167C18.3217 4.94118 18.6142 5.05273 18.8298 5.2513C19.0455 5.44987 19.1667 5.71918 19.1667 6C19.1667 6.28082 19.0455 6.55013 18.8298 6.7487C18.6142 6.94727 18.3217 7.05882 18.0167 7.05882ZM13.4167 12H9.58333C9.27833 12 8.98583 11.8884 8.77016 11.6899C8.55449 11.4913 8.43333 11.222 8.43333 10.9412C8.43333 10.6604 8.55449 10.391 8.77016 10.1925C8.98583 9.99391 9.27833 9.88235 9.58333 9.88235H13.4167C13.7217 9.88235 14.0142 9.99391 14.2298 10.1925C14.4455 10.391 14.5667 10.6604 14.5667 10.9412C14.5667 11.222 14.4455 11.4913 14.2298 11.6899C14.0142 11.8884 13.7217 12 13.4167 12Z" fill="black"/>
</svg>
